<svg xmlns="http://www.w3.org/2000/svg" viewBox="0 0 640 120" width="640" height="120">
  <defs>
    <clipPath id="passantClip"><rect x="4" y="4" width="24" height="24" rx="3"/></clipPath>
  </defs>
  <g transform="translate(20, 20) scale(2.5)">
  <rect width="32" height="32" rx="8" fill="#1E293B" />
  <g clip-path="url(#passantClip)"><rect x="4" y="4" width="8" height="8" fill="#f0d9b5"/><rect x="12" y="4" width="8" height="8" fill="#b58863"/><rect x="20" y="4" width="8" height="8" fill="#f0d9b5"/><rect x="4" y="12" width="8" height="8" fill="#b58863"/><rect x="12" y="12" width="8" height="8" fill="#f0d9b5"/><rect x="20" y="12" width="8" height="8" fill="#b58863"/><rect x="4" y="20" width="8" height="8" fill="#f0d9b5"/><rect x="12" y="20" width="8" height="8" fill="#b58863"/><rect x="20" y="20" width="8" height="8" fill="#f0d9b5"/></g>
  <g transform="translate(2 0.9) scale(0.62)"><path d="M11.5 36.5h22a1.5 1.5 0 0 1 0 3h-22a1.5 1.5 0 0 1 0-3z" fill="#f5f5f4" stroke="#292524" stroke-width="1.5" stroke-linejoin="round"/><path d="M13.5 33h18l1.5 3.5h-21z" fill="#f5f5f4" stroke="#292524" stroke-width="1.5" stroke-linejoin="round"/><path d="M17.5 21.5h10l2.5 11.5h-15z" fill="#f5f5f4" stroke="#292524" stroke-width="1.5" stroke-linejoin="round"/><path d="M17 18.5h11a1.5 1.5 0 0 1 0 3h-11a1.5 1.5 0 0 1 0-3z" fill="#f5f5f4" stroke="#292524" stroke-width="1.5" stroke-linejoin="round"/><path d="M22.5 7a5.5 5.5 0 1 1-.01 0z" fill="#f5f5f4" stroke="#292524" stroke-width="1.5" stroke-linejoin="round"/></g>
  </g>
  <text x="120" y="56" font-family="system-ui, -apple-system, 'Segoe UI', sans-serif" font-size="34" font-weight="800" fill="#1E293B">Passant</text>
  <text x="120" y="84" font-family="system-ui, -apple-system, 'Segoe UI', sans-serif" font-size="17" fill="#64748B">One position, one move, one grade</text>
</svg>
