<svg xmlns="http://www.w3.org/2000/svg" viewBox="0 0 32 32" width="32" height="32">
  <rect x="0.5" y="0.5" width="31" height="31" rx="8" fill="#FFFFFF" stroke="#E2E8F0" stroke-width="1"/>
  <g fill="#94A3B8"><rect x="6" y="13.4" width="4.4" height="1.2" rx="0.6"/><rect x="7.6" y="17.4" width="2.8" height="1.2" rx="0.6"/><rect x="5.4" y="21.4" width="5" height="1.2" rx="0.6"/><rect x="7.6" y="25.4" width="2.8" height="1.2" rx="0.6"/><rect x="13.4" y="6" width="1.2" height="4.4" rx="0.6"/><rect x="17.4" y="7.6" width="1.2" height="2.8" rx="0.6"/><rect x="21.4" y="5.4" width="1.2" height="5" rx="0.6"/><rect x="25.4" y="7.6" width="1.2" height="2.8" rx="0.6"/></g><rect x="12" y="12" width="16" height="16" rx="1.5" fill="none" stroke="#CBD5E1" stroke-width="1"/><g fill="#334155"><rect x="16" y="12" width="8" height="4"/><rect x="12" y="16" width="16" height="8"/><rect x="16" y="24" width="8" height="4"/></g><path d="M16 12v16M20 12v16M24 12v16M12 16h16M12 20h16M12 24h16" stroke="#FFFFFF" stroke-width="0.7" opacity="0.7"/>
</svg>
