<svg xmlns="http://www.w3.org/2000/svg" viewBox="0 0 640 120" width="640" height="120">
  <defs>
    <linearGradient id="nonHdrGrad" x1="0%" y1="0%" x2="100%" y2="100%">
      <stop offset="0%" stop-color="#60A5FA" />
      <stop offset="100%" stop-color="#1D4ED8" />
    </linearGradient>
  </defs>
  <g transform="translate(20, 20) scale(2.5)">
    <rect width="32" height="32" rx="8" fill="#1E293B" />
    <g fill="#94A3B8">
      <rect x="6" y="13.4" width="4.4" height="1.2" rx="0.6"/>
      <rect x="7.6" y="17.4" width="2.8" height="1.2" rx="0.6"/>
      <rect x="5.4" y="21.4" width="5" height="1.2" rx="0.6"/>
      <rect x="7.6" y="25.4" width="2.8" height="1.2" rx="0.6"/>
      <rect x="13.4" y="6" width="1.2" height="4.4" rx="0.6"/>
      <rect x="17.4" y="7.6" width="1.2" height="2.8" rx="0.6"/>
      <rect x="21.4" y="5.4" width="1.2" height="5" rx="0.6"/>
      <rect x="25.4" y="7.6" width="1.2" height="2.8" rx="0.6"/>
    </g>
    <rect x="12" y="12" width="16" height="16" rx="1.5" fill="none" stroke="#64748B" stroke-width="1"/>
    <g fill="url(#nonHdrGrad)">
      <rect x="16" y="12" width="8" height="4"/>
      <rect x="12" y="16" width="16" height="8"/>
      <rect x="16" y="24" width="8" height="4"/>
    </g>
    <path d="M16 12v16M20 12v16M24 12v16M12 16h16M12 20h16M12 24h16" stroke="#1E293B" stroke-width="0.7" opacity="0.7"/>
  </g>
  <text x="120" y="74" font-family="system-ui, -apple-system, 'Segoe UI', sans-serif" font-size="42" font-weight="700" fill="#1E293B">Nonogram</text>
</svg>
