<svg xmlns="http://www.w3.org/2000/svg" viewBox="0 0 640 120" width="640" height="120">
  <defs>
    <linearGradient id="msHdrGrad" x1="0%" y1="0%" x2="100%" y2="100%">
      <stop offset="0%" stop-color="#F87171" />
      <stop offset="100%" stop-color="#B91C1C" />
    </linearGradient>
  </defs>
  <g transform="translate(20, 20) scale(2.5)">
    <rect width="32" height="32" rx="8" fill="#1E293B" />
    <rect x="4" y="4" width="11" height="11" rx="2" fill="#475569"/>
    <rect x="17" y="4" width="11" height="11" rx="2" fill="#0F172A"/>
    <text x="22.5" y="9.8" font-family="system-ui, -apple-system, 'Segoe UI', sans-serif" font-size="8" font-weight="700" fill="#60A5FA" text-anchor="middle" dominant-baseline="central">1</text>
    <rect x="4" y="17" width="11" height="11" rx="2" fill="#475569"/>
    <path d="M8.6 19.5v6.5" stroke="#E2E8F0" stroke-width="1.2" stroke-linecap="round"/>
    <path d="M8.6 19.5l5 2.1-5 2.1z" fill="url(#msHdrGrad)"/>
    <rect x="17" y="17" width="11" height="11" rx="2" fill="#0F172A"/>
    <g stroke="#CBD5E1" stroke-width="1.1" stroke-linecap="round">
      <path d="M22.5 18.7v7.6M18.7 22.5h7.6M19.8 19.8l5.4 5.4M25.2 19.8l-5.4 5.4"/>
    </g>
    <circle cx="22.5" cy="22.5" r="2.9" fill="#CBD5E1"/>
    <circle cx="21.5" cy="21.5" r="0.8" fill="#F8FAFC"/>
  </g>
  <text x="120" y="74" font-family="system-ui, -apple-system, 'Segoe UI', sans-serif" font-size="42" font-weight="700" fill="#1E293B">Minesweeper</text>
</svg>
